<?xml version="1.0" standalone="no"?>
<!DOCTYPE svg PUBLIC "-//W3C//DTD SVG 20010904//EN"
 "http://www.w3.org/TR/2001/REC-SVG-20010904/DTD/svg10.dtd">
<svg version="1.0" xmlns="http://www.w3.org/2000/svg"
 width="256.000000pt" height="256.000000pt" viewBox="0 0 256.000000 256.000000"
 preserveAspectRatio="xMidYMid meet">
<metadata>
Created by potrace 1.11, written by Peter Selinger 2001-2013
</metadata>
<g transform="translate(0.000000,256.000000) scale(0.100000,-0.100000)"
fill="#000000" stroke="none">
<path d="M1228 2282 c-25 -3 -27 -6 -24 -43 2 -21 0 -39 -5 -39 -4 0 -35 16
-69 36 -33 19 -64 33 -68 30 -10 -6 -6 -80 5 -83 4 -2 37 -20 72 -42 62 -37
65 -40 66 -79 1 -34 -1 -39 -14 -32 -9 4 -78 45 -155 89 -76 45 -140 81 -142
81 -2 0 -4 -20 -4 -45 0 -34 4 -47 18 -52 9 -4 57 -31 106 -60 49 -29 91 -53
95 -53 3 0 17 -9 30 -19 l24 -19 -31 -16 c-17 -9 -35 -16 -40 -16 -4 0 -50 25
-101 55 -51 30 -95 55 -97 55 -2 0 -4 -19 -4 -43 l0 -43 84 -49 84 -48 0 -99
c1 -56 -3 -98 -9 -98 -10 0 -110 54 -149 81 -25 17 -26 22 -25 112 l0 94 -37
22 -38 22 0 -118 0 -118 -35 -23 -35 -22 0 47 c-1 27 -1 99 -1 161 l0 113 -32
19 c-18 11 -35 20 -39 20 -5 0 -8 -79 -8 -175 0 -96 -3 -175 -6 -175 -3 0 -19
8 -35 17 -28 17 -29 19 -29 103 0 84 -1 86 -29 103 -16 9 -34 17 -39 17 -6 0
-10 -30 -10 -72 0 -40 -1 -77 -1 -81 -1 -5 -17 1 -37 13 -19 12 -36 21 -38 19
-16 -21 -36 -55 -36 -61 0 -4 16 -16 37 -26 l36 -19 -72 -43 -73 -43 38 -23
37 -23 51 30 c91 54 93 54 133 35 19 -9 34 -19 32 -21 -2 -2 -65 -38 -139 -81
-190 -108 -178 -97 -135 -124 l35 -22 133 76 c73 42 136 76 140 76 4 0 7 -17
7 -37 -1 -37 -3 -39 -88 -88 -48 -27 -93 -51 -99 -53 -23 -6 -14 -21 24 -40
l36 -19 81 47 c48 29 86 45 96 41 8 -3 50 -26 92 -50 l77 -45 -91 -52 -91 -52
-38 24 c-21 13 -41 24 -44 24 -3 0 -23 11 -45 25 l-39 25 -37 -22 c-43 -25
-45 -24 84 -96 80 -45 82 -47 82 -84 0 -21 -3 -38 -6 -38 -3 0 -64 34 -135 75
-71 41 -132 75 -136 75 -5 0 -23 -9 -42 -21 l-34 -20 157 -91 157 -91 -32 -21
-33 -20 -77 42 -78 42 -37 -22 -36 -21 54 -33 c88 -54 85 -51 66 -66 -9 -7
-24 -18 -34 -23 -16 -10 -16 -13 1 -40 11 -17 20 -31 21 -33 1 -2 17 6 35 17
19 12 36 21 39 21 3 0 4 -36 4 -80 -1 -44 0 -80 2 -80 2 0 19 8 39 17 l35 17
0 87 0 87 35 21 35 20 0 -179 c0 -99 3 -180 6 -180 4 0 22 10 41 21 l34 21 -1
112 c-1 61 -1 132 -1 158 l1 47 35 -20 35 -21 0 -118 0 -118 38 21 38 20 -1
94 c-1 73 3 96 15 107 13 11 158 96 164 96 2 0 3 -46 4 -103 l1 -102 -83 -48
c-85 -48 -96 -62 -86 -109 l5 -27 101 58 102 59 31 -20 c38 -24 47 -16 -121
-112 -65 -37 -118 -74 -119 -82 -1 -8 -1 -23 -1 -34 0 -47 -17 -53 194 68 58
34 110 62 115 62 8 0 9 -35 4 -71 -1 -3 -32 -23 -71 -45 -38 -21 -70 -43 -71
-49 -2 -17 3 -70 6 -74 2 -2 20 6 39 18 20 11 51 30 69 41 l34 20 -2 -45 -2
-45 38 0 c40 0 43 3 39 53 -1 15 2 27 7 27 5 0 39 -18 76 -40 l68 -39 -3 46
c-3 47 -4 48 -73 88 -68 40 -70 43 -71 83 l-2 42 42 -24 c22 -14 92 -54 154
-90 62 -36 114 -66 116 -66 1 0 3 19 3 43 l1 43 -134 78 c-74 43 -134 80 -134
82 0 2 14 13 31 23 l31 19 99 -59 c55 -32 101 -59 103 -59 2 0 4 20 3 44 l0
44 -84 48 -83 48 0 104 c0 57 3 101 8 99 4 -2 44 -26 90 -52 l82 -47 0 -97 0
-97 39 -22 40 -22 -1 116 c0 112 1 118 23 135 43 33 46 27 47 -104 1 -200 -2
-185 35 -207 17 -11 34 -20 37 -20 3 0 5 79 5 175 0 96 3 175 8 175 4 0 22 -7
38 -16 23 -12 30 -21 29 -42 -1 -15 -2 -54 -1 -88 1 -56 3 -62 29 -74 15 -8
31 -14 36 -15 5 0 9 35 9 77 -1 43 2 78 6 78 3 0 19 -9 35 -19 34 -23 40 -21
61 20 15 29 15 29 -20 46 -19 9 -35 19 -35 22 0 8 22 21 89 56 55 29 55 30 -1
60 -25 14 -31 13 -98 -26 -65 -38 -73 -40 -101 -29 -16 7 -32 16 -34 20 -4 7
75 58 159 104 79 44 136 79 136 85 0 3 -16 15 -35 25 l-34 19 -131 -77 c-73
-42 -135 -76 -139 -76 -4 0 -7 17 -6 37 1 36 3 39 98 94 54 31 100 59 102 61
3 2 -12 14 -33 26 l-37 21 -84 -49 -84 -49 -46 26 c-25 15 -66 39 -89 54 l-44
26 84 48 c45 26 86 49 89 51 3 2 43 -18 90 -44 l84 -48 38 22 39 21 -104 61
c-101 59 -104 61 -104 96 0 20 4 36 8 36 5 0 67 -34 138 -75 l129 -75 36 17
c19 9 34 21 32 26 -2 6 -68 47 -148 93 -79 46 -142 87 -140 91 2 4 16 15 30
24 26 16 29 15 100 -27 l73 -43 40 21 40 21 -54 33 c-29 19 -61 36 -70 40 -26
8 -22 19 16 39 34 19 34 19 19 49 -9 17 -17 32 -18 34 -2 2 -22 -6 -44 -18
l-42 -21 3 81 c2 44 -1 80 -5 80 -4 0 -21 -7 -37 -15 -32 -17 -32 -18 -30
-126 1 -66 1 -66 -33 -83 -19 -9 -37 -16 -39 -16 -2 0 -3 79 -3 175 0 96 -3
175 -7 175 -17 0 -68 -37 -69 -50 0 -8 -1 -79 -1 -157 0 -79 -2 -143 -5 -143
-2 0 -17 7 -33 15 -33 17 -31 9 -32 198 0 31 -1 57 -3 57 -2 0 -20 -9 -39 -21
l-36 -21 0 -97 0 -97 -87 -51 -88 -51 -3 100 c-3 95 -1 102 20 117 24 16 86
53 125 73 18 9 22 19 21 54 0 24 -2 44 -3 44 -1 0 -46 -25 -100 -55 -53 -30
-103 -55 -110 -55 -7 0 -23 8 -36 19 l-23 18 122 72 c67 39 128 74 136 77 10
4 14 19 13 50 -1 27 -5 43 -12 40 -5 -2 -76 -42 -157 -89 l-148 -85 0 41 c0
42 1 42 73 82 l72 40 3 47 3 48 -69 -40 c-38 -22 -72 -40 -76 -40 -3 0 -6 18
-6 39 0 42 -9 49 -52 43z m68 -403 l54 -30 1 -72 c0 -40 0 -116 -1 -169 0 -54
2 -98 5 -98 4 0 68 36 144 80 76 44 145 80 152 79 8 0 34 -13 59 -28 l45 -27
0 -64 0 -64 -137 -81 c-75 -44 -140 -83 -143 -86 -3 -4 47 -37 112 -75 180
-103 169 -93 171 -163 l1 -60 -50 -30 c-27 -17 -54 -31 -60 -31 -6 0 -38 16
-72 36 -34 20 -82 48 -107 62 -25 14 -58 34 -75 44 -16 10 -33 18 -37 18 -4 0
-7 -62 -7 -137 0 -76 0 -152 0 -170 -1 -27 -8 -35 -53 -62 l-53 -30 -57 32
-57 31 0 165 c-1 91 -3 166 -4 168 -2 2 -68 -34 -147 -78 l-143 -82 -53 29
c-52 28 -56 34 -56 84 0 79 -5 74 110 138 59 34 124 72 146 85 l38 24 -146 84
c-151 87 -148 84 -148 149 0 58 4 66 48 93 25 15 51 27 59 27 7 0 75 -36 151
-80 76 -43 139 -78 141 -76 2 1 3 77 4 168 l1 165 52 31 c28 16 53 31 55 31 2
1 28 -13 57 -30z"/>
<path d="M1218 1813 c-12 -15 -14 -54 -14 -220 1 -112 -2 -203 -5 -203 -4 0
-85 45 -180 101 -186 108 -219 117 -219 61 1 -24 17 -36 167 -122 91 -52 172
-100 180 -105 12 -9 -25 -34 -166 -115 -162 -94 -181 -108 -179 -129 7 -54 26
-49 211 57 97 56 179 102 184 102 5 0 8 -93 8 -206 0 -191 1 -207 19 -219 14
-11 23 -11 37 -2 18 11 19 27 19 226 0 169 3 211 13 204 6 -6 37 -24 67 -40
30 -17 107 -60 170 -97 63 -37 121 -65 129 -64 19 4 35 32 28 50 -3 9 -70 53
-149 98 -79 46 -160 93 -180 104 l-37 22 67 39 c37 22 83 48 102 58 118 65
200 120 200 136 0 20 -19 41 -38 41 -13 0 -318 -173 -337 -191 -5 -5 -15 -9
-22 -9 -10 0 -13 44 -13 210 0 197 -1 210 -19 220 -25 13 -25 13 -43 -7z"/>
</g>
</svg>
